<svg xmlns="http://www.w3.org/2000/svg" width="35" height="35" viewBox="0 0 35 35"><path d="M31.25,2.25H3.75A3.751,3.751,0,0,0,0,6V33.5a3.751,3.751,0,0,0,3.75,3.75h27.5A3.751,3.751,0,0,0,35,33.5V6A3.751,3.751,0,0,0,31.25,2.25ZM21.664,32.227c-.656.117-.9-.289-.9-.625,0-.422.016-2.578.016-4.32a3.044,3.044,0,0,0-.883-2.4c2.891-.32,5.938-.719,5.938-5.711A4.011,4.011,0,0,0,24.5,16.125a4.886,4.886,0,0,0-.133-3.516c-1.086-.336-3.57,1.4-3.57,1.4a12.29,12.29,0,0,0-6.5,0s-2.484-1.734-3.57-1.4a4.848,4.848,0,0,0-.133,3.516,3.924,3.924,0,0,0-1.219,3.047c0,4.969,2.914,5.391,5.8,5.711a2.832,2.832,0,0,0-.828,1.742,2.741,2.741,0,0,1-3.773-1.086A2.722,2.722,0,0,0,8.586,24.2C7.32,24.187,8.5,25,8.5,25c.844.391,1.438,1.891,1.438,1.891.758,2.32,4.383,1.539,4.383,1.539,0,1.086.016,2.852.016,3.172,0,.336-.234.742-.9.625A12.961,12.961,0,0,1,4.672,19.859,12.4,12.4,0,0,1,17.328,7.242,12.675,12.675,0,0,1,30.313,19.859,12.842,12.842,0,0,1,21.664,32.227ZM14,27.453c-.148.031-.289-.031-.3-.133-.016-.117.086-.219.234-.25.148-.016.289.047.3.148S14.156,27.422,14,27.453Zm-.742-.07c0,.1-.117.188-.273.188-.172.016-.289-.07-.289-.187,0-.1.117-.188.273-.188C13.117,27.18,13.258,27.266,13.258,27.383Zm-1.07-.086c-.031.1-.187.148-.32.1-.148-.031-.25-.148-.219-.25s.187-.148.32-.117C12.125,27.078,12.227,27.2,12.187,27.3Zm-.961-.422c-.07.086-.219.07-.336-.047-.117-.1-.148-.25-.07-.32.07-.086.219-.07.336.047C11.258,26.656,11.3,26.813,11.227,26.875Zm-.711-.711c-.07.047-.2,0-.289-.117s-.086-.25,0-.3c.086-.07.219-.016.289.1a.229.229,0,0,1,0,.32Zm-.508-.758c-.07.07-.187.031-.273-.047-.086-.1-.1-.219-.031-.273.07-.07.188-.031.273.047C10.063,25.234,10.078,25.352,10.008,25.406Zm-.523-.578a.147.147,0,0,1-.219.031c-.1-.047-.148-.133-.117-.2a.184.184,0,0,1,.219-.031C9.469,24.68,9.516,24.766,9.484,24.828Z" transform="translate(0 -2.25)"/></svg>