<svg xmlns="http://www.w3.org/2000/svg" xmlns:xlink="http://www.w3.org/1999/xlink" width="88" height="92" viewBox="0 0 88 92"><defs><style>.a{fill:#5d8233;}.b{clip-path:url(#a);}</style><clipPath id="a"><rect class="a" width="88" height="92"/></clipPath></defs><g class="b"><path class="a" d="M97.357,41.056a24.331,24.331,0,0,1,3.944,8.939,24.875,24.875,0,0,1,.149,9.842,1.413,1.413,0,0,1-.054.213,23.572,23.572,0,0,1-4.009,9.435,13.1,13.1,0,0,0,4.017.342,13.721,13.721,0,0,0,9.38-4.8,14.97,14.97,0,0,0,3.563-10.261c0-.045,0-.091,0-.136a15,15,0,0,0-2.68-7.965,14.082,14.082,0,0,0-6.191-4.979,13.418,13.418,0,0,0-7.78-.732C97.581,40.983,97.479,41.028,97.357,41.056Z" transform="translate(-25.962 -9.493)"/><path class="a" d="M67.185,31.712a31.279,31.279,0,0,1,6.7,11.689,32.311,32.311,0,0,1,1.254,13.564.847.847,0,0,1-.054.316,31.425,31.425,0,0,1-7.864,17.206,19.817,19.817,0,0,0,3.685.374h.2a20.242,20.242,0,0,0,14.476-6.369c.109-.114.218-.228.316-.342.275-.3.536-.594.76-.889.3-.348.536-.673.774-.992a21.653,21.653,0,0,0,3.848-8.957A.547.547,0,0,1,91.3,57.2a22.613,22.613,0,0,0-.22-9.265,22.053,22.053,0,0,0-3.907-8.319,5.743,5.743,0,0,0-.479-.609c-.179-.228-.291-.374-.424-.514-.252-.291-.466-.527-.693-.766A20.643,20.643,0,0,0,78.838,33a19.9,19.9,0,0,0-7.965-1.648,20.2,20.2,0,0,0-3.217.26C67.5,31.632,67.342,31.69,67.185,31.712Z" transform="translate(-17.916 -7.316)"/><path class="a" d="M2.2,62.263l.023.054a28.862,28.862,0,0,0,7.6,10.714,27.229,27.229,0,0,0,11.388,6.01,26.49,26.49,0,0,0,12.757.028,27.216,27.216,0,0,0,11.412-5.96c.357-.3.7-.615,1.026-.947.291-.273.545-.529.8-.8.1-.108.164-.174.222-.243a29.214,29.214,0,0,0,7.64-16.5.949.949,0,0,1,.02-.131c.009-.049.014-.073.023-.108A30.084,30.084,0,0,0,53.8,41.472a29.065,29.065,0,0,0-6.6-11c-.32-.333-.547-.561-.779-.772s-.4-.389-.583-.551a26.389,26.389,0,0,0-3.115-2.47l-.034-.017A26.929,26.929,0,0,0,31.415,22.27a26.511,26.511,0,0,0-12,1.038,27.392,27.392,0,0,0-10.44,6.269,28.961,28.961,0,0,0-6.9,10.312,1.144,1.144,0,0,1-.048.11A30.373,30.373,0,0,0,2.2,62.263Z" transform="translate(0 -5.133)"/></g></svg>