<svg xmlns="http://www.w3.org/2000/svg" width="35" height="35" viewBox="0 0 35 35"><defs><style>.a{fill:#0270ad;}</style></defs><path class="a" d="M32.5,2.25H2.492A2.511,2.511,0,0,0,0,4.773V34.727A2.511,2.511,0,0,0,2.492,37.25H32.5A2.517,2.517,0,0,0,35,34.727V4.773A2.517,2.517,0,0,0,32.5,2.25Zm-21.922,30H5.391v-16.7h5.2v16.7ZM7.984,13.266a3.008,3.008,0,1,1,3.008-3.008,3.009,3.009,0,0,1-3.008,3.008ZM30.023,32.25H24.836V24.125c0-1.937-.039-4.43-2.7-4.43-2.7,0-3.117,2.109-3.117,4.289V32.25H13.836v-16.7h4.977v2.281h.07a5.464,5.464,0,0,1,4.914-2.7c5.25,0,6.227,3.461,6.227,7.961Z" transform="translate(0 -2.25)"/></svg>