<svg xmlns="http://www.w3.org/2000/svg" width="35" height="35" viewBox="0 0 35 35"><defs><style>.a{fill:#0b11b7;}</style></defs><path class="a" d="M37.568,4.5H6.432A1.933,1.933,0,0,0,4.5,6.432V37.568A1.933,1.933,0,0,0,6.432,39.5H22V25.646H17.816v-5.1H22V16.768c0-4.521,3.135-6.982,7.173-6.982,1.932,0,4.01.146,4.493.21v4.721H30.449c-2.2,0-2.616,1.039-2.616,2.57v3.254h5.232l-.684,5.1H27.833V39.5h9.734A1.933,1.933,0,0,0,39.5,37.568V6.432A1.933,1.933,0,0,0,37.568,4.5Z" transform="translate(-4.5 -4.5)"/></svg>