<svg xmlns="http://www.w3.org/2000/svg" width="35" height="35" viewBox="0 0 35 35"><defs><style>.a{fill:#5ba4d6;}</style></defs><path class="a" d="M31.4,12.1c.022.383.022.766.022,1.148,0,11.676-7.218,25.129-20.409,25.129A17.625,17.625,0,0,1,0,34.416a12.082,12.082,0,0,0,1.732.109,12.766,12.766,0,0,0,8.905-3.773c-3.154-.082-5.8-2.625-6.707-6.125a7.39,7.39,0,0,0,1.355.137,6.253,6.253,0,0,0,1.888-.3c-3.287-.82-5.752-4.375-5.752-8.668v-.109a6.239,6.239,0,0,0,3.242,1.121,9.5,9.5,0,0,1-3.2-7.355,10.358,10.358,0,0,1,.977-4.457c3.531,5.359,8.839,8.859,14.791,9.242a12.193,12.193,0,0,1-.178-2.023c0-4.867,3.2-8.832,7.173-8.832A6.615,6.615,0,0,1,29.47,6.17a12.643,12.643,0,0,0,4.553-2.133A8.719,8.719,0,0,1,30.869,8.9,12.323,12.323,0,0,0,35,7.537,17.824,17.824,0,0,1,31.4,12.1Z" transform="translate(0 -3.381)"/></svg>